<?xml version="1.0" encoding="utf-8"?>
<!-- Generator: Adobe Illustrator 19.0.0, SVG Export Plug-In . SVG Version: 6.00 Build 0)  -->
<svg version="1.1" id="Layer_2" xmlns="http://www.w3.org/2000/svg" xmlns:xlink="http://www.w3.org/1999/xlink" x="0px" y="0px"
	 viewBox="0 0 392.5 484.5" style="enable-background:new 0 0 392.5 484.5;" xml:space="preserve">
<style type="text/css">
	.st0{fill:url(#XMLID_89_);}
</style>
<linearGradient id="XMLID_89_" gradientUnits="userSpaceOnUse" x1="390.3959" y1="242.8118" x2="2.7397" y2="242.8118">
	<stop  offset="0.287" style="stop-color:#C09757"/>
	<stop  offset="0.3326" style="stop-color:#C29B5C"/>
	<stop  offset="0.3976" style="stop-color:#CAA46A"/>
	<stop  offset="0.4743" style="stop-color:#D6B481"/>
	<stop  offset="0.5592" style="stop-color:#E9CDA4"/>
	<stop  offset="0.6047" style="stop-color:#F6DEBC"/>
	<stop  offset="0.6358" style="stop-color:#EFD4AF"/>
	<stop  offset="0.7738" style="stop-color:#D4B17D"/>
	<stop  offset="0.8757" style="stop-color:#C59E62"/>
	<stop  offset="0.9295" style="stop-color:#C09757"/>
</linearGradient>
<path id="XMLID_54_" class="st0" d="M205.7,82.7c6.5-2.5,13-5.1,19.5-7.1c2.3,0.4,4.7,0.9,7.2,1.2c-8.4,1.8-17.1,5.3-25.6,8.6
	c-0.4,0.1-1.1,0.4-1.5,0.6c-1.3-0.6-2.6-1.1-3.9-1.7C202.7,83.8,204.4,83.2,205.7,82.7z M205.7,72.6c-5.2,2.1-11.3,4.5-16.6,6.2
	c1.3,0.6,2.7,1.2,4,1.8c4.4-1.5,9.5-3.6,13.7-5.2c2-0.8,4.1-1.6,6.1-2.4c-1.7-0.4-3.5-0.8-5.1-1.3C207.1,72,206.4,72.3,205.7,72.6z
	 M119.3,136.1l6.6-15.1l0,0l24.4-55.6c-1.5-0.7-3-1.5-4.5-2.2l-23.9,54.5c-1.5-3.3-2.9-6.6-4.3-9.7l-4,2.4c1.8,4.1,3.8,8.5,5.8,13
	l-2.8,6.4C117.5,131.9,118.4,134,119.3,136.1z M174.7,72.2c1.6,0.7,3.2,1.5,4.8,2.2c5.6-1.2,12.3-3.3,17.9-5.4
	c-1.7-0.5-3.3-1-4.9-1.5C186.8,69.5,180.2,71.4,174.7,72.2z M158.1,406.3c0.7,1.9,3.5,3.3,6.5,2.2c2.9-1,4.4-3.4,3.5-5.8
	c-0.5-1.5-2.9-4.1-6.8-2.7C157.7,401.3,157.3,404.2,158.1,406.3z M131.5,309c2.9-1,3.9-3,3.4-4.3l-1-2.7l0,0l-8.9,3.2l1,2.9
	C126.5,309.6,128.8,310,131.5,309z M222.1,328.2l-3.6,2.2c9.7,13.6,20.2,23.8,29.8,24C239.4,350.1,230.3,339.9,222.1,328.2z
	 M200.9,315.5l7.8-17.9l0,0l80.5-183.4c-1.7-0.2-3.5-0.3-5.2-0.5l-80.4,183.1c-1.5-3-2.9-5.7-4.1-8.2l-4,2.4c0.9,1.9,0.4,0.8,1,2
	c1.5,2.9,3.1,6,4.7,9.1l0,0l0,0l0,0l-3.4,7.8C198.8,311.8,199.8,313.6,200.9,315.5z M244,95.6c10.6,0,21.2,4.7,32.4,9.7
	c2.5,1.1,4.4,2,7,3.1c3.3,0.3,6.7,0.5,10,0.6c-5.8-1.9-10.1-3.9-15.8-6.4c-11-4.9-22.4-10-33.6-10c-5.2,0-10.7,1.1-16.1,2.5
	c1.7,0.6,3.5,1.3,5.3,1.9C236.8,96.2,240.5,95.6,244,95.6z M360.4,93c22.5,172.1-51.9,264.8-86.9,311.6
	c-27.8,36.2-29.8,52.2-19.9,67.7c-36.4,15.7-68.6,7.2-80.9,4.6c-4.9-6.4-7.2-12.4-9.3-18l8.4-0.3c0,0,1.8,3.5,3.5,6.7
	c9.8-1.3,20.4-5.4,30.7-9.5c0.5-0.2,1-0.4,1.5-0.6c1.7-3,3.7-6,5.8-9.1c-1.9,0.7-4.3,1.7-6.2,2.4c-11.8,4.7-24,9.5-35.3,10.1l0-0.1
	c1.3-1.1,2.6-2.2,3.8-3.3c9.8-1.3,20.3-5.5,30.4-9.5c3.3-1.3,7.2-2.8,10.5-4.1c2.3-3.1,4.8-6.2,7.5-9.4c-5.3,1.7-11.7,4.1-16.9,6.2
	c-6.8,2.7-13.8,5.5-20.7,7.4c2-1.7,3.9-3.4,5.8-5c4.6-1.6,9.2-3.4,13.8-5.2c6.8-2.7,14.8-5.7,21.7-7.7c2.5-2.9,5.1-5.9,7.9-8.9
	c-9,1.7-19.3,5.7-28.4,9.3c-0.3,0.1-0.6,0.2-0.9,0.4c2.4-2.1,4.7-4.1,6.7-5.9c8.3-3.2,17.7-6.3,25.9-7.4c2.2-2.4,4.4-4.8,6.6-7.2
	c-0.4,0-0.9-0.1-1.2-0.1c-5.9,0-12.2,1.3-18.5,3.2c2-1.8,3.6-3.3,5-4.5c4.6-1.1,9.1-1.8,13.5-1.8c1.1,0,2.6,0.1,3.9,0.2
	c1.9-2,3.7-4,5.6-6.1c-3.2-0.7-6.3-1.2-9.5-1.2c-1.4,0-2.8,0.1-4.3,0.2c1.1-1,2.2-2.1,3.4-3.2c0.3,0,0.6,0,0.9,0
	c3.9,0,7.9,0.6,11.8,1.6c1.6-1.8,3.3-3.6,5-5.4c-3.7-1.3-7.4-2.3-11-2.8c0.8-0.9,1.7-1.7,2.6-2.6c3.6,0.7,7.1,1.8,10.6,3
	c1.5-1.7,3-3.4,4.5-5.1c-3.3-1.4-6.6-2.6-9.8-3.6c0.7-0.8,1.5-1.6,2.3-2.4c3.2,1,6.5,2.3,9.7,3.7c1.4-1.6,2.9-3.3,4.3-4.9
	c-3.1-1.4-6.3-2.8-9.3-4c0.7-0.8,1.4-1.6,2.1-2.4c3.1,1.2,6.2,2.6,9.3,4c1.4-1.6,2.8-3.3,4.2-4.9c-1.3-0.6-2.5-1.1-3.8-1.7
	c-1.8-0.8-3.6-1.6-5.3-2.4c0.7-0.8,1.3-1.6,2-2.4c1.5,0.7,3,1.4,4.6,2c1.5,0.7,3,1.3,4.6,2c1.4-1.7,2.7-3.3,4.1-5
	c-3.1-1.3-6.1-2.6-9.1-4c0.6-0.8,1.3-1.6,1.9-2.4c3,1.3,6.1,2.7,9.1,3.9c1.4-1.7,2.7-3.5,4-5.2c-3-1.1-6.3-2.5-9.3-3.8
	c0.6-0.8,1.3-1.7,1.9-2.5c3,1.3,6.3,2.7,9.3,3.7c1.4-1.9,2.8-3.8,4.2-5.7c-3.1-0.8-6.6-2.1-9.6-3.2c0.6-0.8,1.2-1.7,1.8-2.5
	c3,1.1,6.6,2.3,9.6,3.1c1.4-2,2.8-4.1,4.3-6.2c-3.2-0.6-6.9-1.5-10-2.5c0.6-0.9,1.2-1.7,1.8-2.6c3.1,1,6.9,1.9,10,2.3
	c1.5-2.3,3-4.5,4.4-6.9c-3.7-0.1-7.4-0.6-10.5-1.3c0.6-0.9,1.2-1.8,1.8-2.7c3.2,0.7,7,1.1,10.6,1.1c1.5-2.4,2.9-4.8,4.3-7.2
	c-2,0.2-3.6,0.3-4.9,0.3c-2,0-4-0.2-6-0.4c0.6-0.9,1.2-1.9,1.8-2.8c1.4,0.1,2.8,0.2,4.3,0.2c1.8,0,4.1-0.1,6.7-0.5
	c1.4-2.6,2.9-5.2,4.3-7.9c-4.4,0.9-7.7,1.3-11,1.3c-0.1,0-0.1,0-0.2,0c0.6-1,1.2-2,1.8-3.1c3.3-0.1,6.7-0.7,11.2-1.7
	c1.3-2.6,2.6-5.3,3.8-7.9c-4.4,1.2-7.7,1.9-10.9,2.3c0.6-1.1,1.2-2.2,1.8-3.3c3.2-0.5,6.4-1.3,10.8-2.6c1.2-2.6,2.4-5.3,3.5-8.1
	c-3.9,1.3-7.1,2.2-10.2,2.9c0.6-1.2,1.2-2.3,1.7-3.5c3.1-0.8,6.2-1.7,10-3.1c1-2.6,2-5.2,3-7.9c-3.4,1.2-6.3,2.2-9.2,3
	c0.6-1.2,1.1-2.4,1.7-3.7c2.8-0.9,5.5-1.8,8.8-3c0.9-2.6,1.8-5.2,2.6-7.9c-2.8,1.1-5.4,2-7.9,2.8c0.5-1.2,1-2.5,1.6-3.7
	c2.4-0.8,4.8-1.8,7.5-2.8c0.8-2.5,1.5-5.1,2.2-7.7c-2.4,0.9-4.4,1.7-6.5,2.4c0.5-1.2,1-2.5,1.4-3.8c1.9-0.7,3.8-1.4,6-2.3
	c0.6-2.5,1.3-5,1.8-7.6c-1.8,0.7-3.4,1.4-5,2c0.4-1.2,0.9-2.5,1.3-3.7c1.4-0.5,2.8-1.1,4.1-1.6c0.1,0,0.2-0.1,0.4-0.2
	c0.5-2.4,1-4.9,1.5-7.4c-0.3,0.1-0.5,0.2-0.8,0.3c-0.9,0.4-1.8,0.7-2.7,1.1c0.4-1.2,0.8-2.5,1.1-3.7c0.2-0.1,0.3-0.1,0.5-0.2
	c0.8-0.3,1.7-0.7,2.5-1c0.4-2.4,0.8-4.8,1.2-7.3c-0.7,0.3-1.3,0.5-2,0.8c0.3-1.2,0.6-2.4,1-3.6c0.5-0.2,1-0.4,1.5-0.6
	c0.3-2.4,0.6-4.8,0.9-7.2c-0.2,0.1-0.4,0.1-0.6,0.2c0.3-1.2,0.6-2.4,0.8-3.6c0,0,0.1,0,0.1,0c0.5-4.3,0.8-8.8,1.1-13.3
	c0.3-5.1,0-15.2-2.7,0.2c-14.2,67.8-49,143.3-122.2,209c13.7-17.5,11.1-27.5,19.4-45.4c52.5-77.2,62-162.1,63-208.8
	c0.1-1.2,0.2-2.3,0.3-3.1c0.5-5.2,4.4-8.7,11.8-11.7c2-0.8,4.4-1.6,6.9-2.4c2.1-0.6,4-1.2,5.7-1.7c0,0,0.1,0,0.1,0
	c0.2-0.1,0.4-0.1,0.6-0.2c0.1,0,0.1,0,0.2,0c0.2-0.1,0.4-0.1,0.5-0.2c0.1,0,0.1,0,0.2-0.1c0.2,0,0.3-0.1,0.5-0.1
	c0.1,0,0.2-0.1,0.2-0.1c0.1,0,0.3-0.1,0.4-0.1c0.1,0,0.2-0.1,0.3-0.1c0.1,0,0.3-0.1,0.4-0.1c0.1,0,0.2-0.1,0.3-0.1
	c0.1,0,0.2-0.1,0.4-0.1c0.1,0,0.2-0.1,0.3-0.1c0.1,0,0.2-0.1,0.3-0.1c0.1,0,0.2-0.1,0.3-0.1c0.1,0,0.2-0.1,0.3-0.1
	c0.1,0,0.2-0.1,0.3-0.1c0.1,0,0.2-0.1,0.3-0.1c0.1,0,0.2-0.1,0.3-0.1c0.1,0,0.2-0.1,0.3-0.1c0.1,0,0.2-0.1,0.3-0.1
	c0.1,0,0.2-0.1,0.3-0.1c0.1,0,0.2-0.1,0.3-0.1c0.1,0,0.2-0.1,0.3-0.1c0.1,0,0.2-0.1,0.3-0.1c0.1,0,0.2-0.1,0.3-0.1
	c0.1,0,0.2-0.1,0.3-0.1c0.1,0,0.2-0.1,0.2-0.1c0.1,0,0.2-0.1,0.3-0.1c0.1,0,0.1-0.1,0.2-0.1c0.1,0,0.2-0.1,0.2-0.1
	c0.1,0,0.2-0.1,0.2-0.1c0.1,0,0.2-0.1,0.2-0.1c0.1,0,0.1-0.1,0.2-0.1c0.1,0,0.2-0.1,0.2-0.1c0.1,0,0.1-0.1,0.2-0.1
	c0.1-0.1,0.2-0.1,0.2-0.2c0.1,0,0.1-0.1,0.2-0.1c0.1-0.1,0.2-0.1,0.2-0.2c0.1,0,0.1-0.1,0.2-0.1c0.1-0.1,0.1-0.1,0.2-0.2
	c0.1,0,0.1-0.1,0.2-0.1c0.1-0.1,0.1-0.1,0.2-0.2c0.1,0,0.1-0.1,0.2-0.1c0.1-0.1,0.1-0.1,0.2-0.2c0.1,0,0.1-0.1,0.2-0.2
	c0.2-0.2,0.5-0.5,0.7-0.7c0.1-0.1,0.1-0.1,0.2-0.2c0-0.1,0.1-0.1,0.1-0.2c0.1-0.1,0.1-0.1,0.2-0.2c0-0.1,0.1-0.1,0.1-0.2
	c0.1-0.1,0.1-0.1,0.2-0.2c0-0.1,0.1-0.1,0.1-0.2c0.1-0.1,0.1-0.2,0.2-0.2c0-0.1,0.1-0.1,0.1-0.2c0-0.1,0.1-0.2,0.1-0.2
	c0-0.1,0.1-0.1,0.1-0.2c0-0.1,0.1-0.2,0.1-0.3c0-0.1,0.1-0.1,0.1-0.2c0-0.1,0.1-0.2,0.1-0.3c0-0.1,0.1-0.1,0.1-0.2
	c0-0.1,0.1-0.2,0.1-0.3c0-0.1,0.1-0.1,0.1-0.2c0-0.1,0.1-0.2,0.1-0.3c0-0.1,0.1-0.1,0.1-0.2c0-0.1,0.1-0.2,0.1-0.3
	c0-0.1,0.1-0.1,0.1-0.2c0-0.1,0.1-0.2,0.1-0.3c0-0.1,0-0.1,0.1-0.2c0-0.1,0.1-0.2,0.1-0.4c0-0.1,0-0.1,0.1-0.2
	c0-0.1,0.1-0.3,0.1-0.4c0-0.1,0-0.1,0.1-0.2c0-0.1,0.1-0.3,0.1-0.4c0-0.1,0-0.1,0-0.2c0-0.1,0.1-0.3,0.1-0.4c0-0.1,0-0.1,0-0.2
	c0-0.2,0.1-0.3,0.1-0.5c0-0.1,0-0.1,0-0.2c0-0.2,0.1-0.3,0.1-0.5c0-0.1,0-0.1,0-0.2c0-0.2,0.1-0.4,0.1-0.5c0-0.1,0-0.1,0-0.2
	c0-0.2,0-0.4,0.1-0.6c0-0.1,0-0.1,0-0.2c0-0.2,0-0.4,0.1-0.6c0,0,0-0.1,0-0.1c0-0.2,0-0.5,0.1-0.7c0,0,0-0.1,0-0.1
	c0-0.3,0-0.5,0-0.8c0,0,0,0,0-0.1c0.1-2.6,0.1-5.6,0-9.1c0,0,0,0,0,0c0-0.8-0.1-1.6-0.1-2.5c-16.3,7.2-29.9,10.5-37.2,11.9
	c-1.8,0.2-3.7,0.3-5.5,0.3c-12.3,0-24.2-5.3-35.7-10.4c-11.2-5-21.8-9.7-32.4-9.7c-8.2,0-17.2,2.6-25.9,5.8
	c-0.6-0.2-1.2-0.5-1.8-0.7c-0.8-0.3-1.6-0.7-2.4-1c10.1-3.8,20.5-7.1,30.1-7.1c11.3,0,22.6,5.1,33.6,10c11.2,5,22.8,10.2,34.4,10.2
	c11.5,0,24.3-5,36.6-9.9c3.6-1.4,7.3-2.9,11-4.2c7.7-4.5,13.1-8.7,16.6-11.8c-8.5,1.9-18,5.4-26.5,8.7c-12.6,5-25.7,10.1-37.7,10.1
	c-12.3,0-24.2-5.3-35.6-10.4c-3.9-1.7-7.7-3.4-11.5-4.9c2.8,0.1,5.6,0.2,8.5,0.3c1.4,0.6,2.8,1.2,4.2,1.9
	c11.2,5,22.8,10.2,34.4,10.2c11.5,0,24.3-5,36.6-9.9c10.2-4,21.5-8.2,31.6-9.7c0.4-0.5,0.7-0.8,0.8-1c1.3-1.7,0.5-3.8,0.5-3.8
	c-0.3-0.8-0.6-1.6-0.9-2.4c-10,1.4-20.7,5.6-31,9.6c-12.6,5-25.7,10.1-37.7,10.1c-8,0-15.8-2.2-23.4-5.2c2.4-0.2,4.8-0.4,7-0.7
	c5.4,1.7,10.9,2.9,16.3,2.9c11.5,0,24.3-5,36.6-9.9c10.2-4,21-8.2,31.1-9.7c-0.8-2.3-1.7-4.5-2.5-6.6c-8.9,1.7-18.3,5.4-27.4,9
	c-12,4.7-24.4,9.6-36,10.1c3.9-1.4,7.6-2.9,10.9-4.7c7.9-1.9,16-5.1,24-8.2c9.1-3.6,18.4-7.2,27.4-9.1c-0.9-2.2-1.8-4.4-2.7-6.4
	c-7.6,1.9-15.9,5.1-23.6,8.2c-2.6,1-5.2,2-7.8,3c1.7-1.7,3.3-3.4,4.7-5.1c0.7-0.3,1.3-0.5,2-0.8c7.6-3,15.8-6.2,23.4-8.2
	c-1-2.2-2-4.3-2.9-6.2c-5.1,1.5-10.7,3.6-15.7,5.6c0.8-1.4,1.6-2.8,2.3-4.1c3.8-1.5,8.2-3,12.1-4.2c-1.1-2.2-2.2-4.1-3.1-5.9
	c-1.6,0.5-3.7,1.3-5.3,1.8c0.5-1.3,0.9-2.5,1.3-3.7c0.6-0.2,1.7-0.6,2.4-0.8c-4-6.7-6.5-9.7-6.5-9.7
	C335.4,118,182.2,59.6,134.7,41.3c-66.4-25.6-95.2-1.1-95.2-1.1c16.5-6,27.3-4.7,35.1-1.4c0,0,0,0,0,0c6.5,2.8,14.9,7.3,26.8,32.9
	c0,0,4,9,10.4,23.3l17.5-39.8c1.5,0.7,3,1.4,4.5,2.1l-18.2,41.6l0,0l-6.2,14.2c-0.9-2.2-1.8-4.2-2.7-6.2l2.6-6
	C101.8,84.2,96.4,72.1,94.7,68c-0.1-0.1-0.1-0.2-0.2-0.4c-0.2-0.5-0.4-0.9-0.6-1.4c-0.1-0.2-0.2-0.4-0.3-0.6
	c-0.3-0.5-0.5-1.1-0.8-1.6c-0.1-0.2-0.2-0.4-0.3-0.5c-0.2-0.4-0.4-0.8-0.6-1.2c-0.1-0.2-0.2-0.3-0.2-0.5c-0.3-0.5-0.5-1-0.8-1.5
	c-0.1-0.2-0.2-0.3-0.3-0.5c-0.3-0.5-0.5-0.9-0.8-1.4c-0.1-0.1-0.1-0.2-0.2-0.3c-0.3-0.4-0.5-0.8-0.8-1.2c-0.1-0.1-0.2-0.2-0.2-0.4
	c-0.3-0.4-0.6-0.9-0.9-1.3c-0.1-0.1-0.1-0.2-0.2-0.3c-0.3-0.4-0.6-0.8-0.8-1.1c0-0.1-0.1-0.1-0.1-0.2c-0.3-0.4-0.6-0.8-0.9-1.2
	c-0.1-0.1-0.1-0.2-0.2-0.2c-0.3-0.4-0.6-0.8-1-1.1c0,0,0,0,0,0c-0.3-0.4-0.6-0.7-1-1.1c0,0-0.1-0.1-0.1-0.1c-0.3-0.4-0.7-0.7-1-1
	c0,0-0.1-0.1-0.1-0.1c-0.7-0.7-1.4-1.3-2.1-1.9c0,0,0,0-0.1-0.1c-9.4-7.8-18.9-7.5-24.9-6.5c9.1,0.7,21.8,9.5,30.4,26.3c0,0,0,0,0,0
	c0.6,1.1,1.1,2.3,1.7,3.5c0.3,0.6,0.5,1.2,0.9,2c0.3,0.8,0.7,1.6,1.1,2.5c0.1,0.3,0.3,0.6,0.4,1c16.9,39.8,87.3,215.5,103.2,243.8
	c10.4,18.5,22.5,37.9,42.2,37.8c4.1,0,8.5-0.9,13.3-2.8c-12.5,20.6-25,37.5-36.6,51.5C169.1,347,135.2,233.8,78.1,91.2
	C72.5,98.6,64,105,53,106.9c4.1,6.6,7.9,25.5,11,38.6c1.5,5.4,3.2,6.8,2.7-0.6c-0.4-5.9-3.4-24.1,0.5-27.4c3.9-3.4,7.9-6.4,7.2-12.8
	c36.2,92.1,90.2,258.9,127.6,312.3c-28.4,31.1-50.7,43.9-56.3,48c0,0-1.6,1.2-2.4-0.7c-33.3-76.5-58.4-208.6-93-343
	c-3.4-13.3-8.2-13.8-11.3-14.1c0,0,0,0,0,0C6.2,103.6,2.7,76.7,2.7,65c0-23.5,29.6-88.5,144.5-47.8C262,57.8,328,32.2,356.7,5.1
	c0,0,19.4,23.3,33.7,65.1C380.6,79.8,370.6,87.2,360.4,93z M119.6,311.3c1.1-0.4,1.6-1.6,1.3-2.7c-0.4-1.1-1.6-1.7-2.7-1.3
	c-1.1,0.4-1.7,1.6-1.3,2.7C117.3,311.1,118.5,311.6,119.6,311.3z M159,395c-6.2,2.2-6.9,8.4-5.9,11.2c0.9,2.5,2.1,3.1,2.9,3.5
	c0.1,0.1,0.3,0.2,0.4,0.2c0,0,0,0,0.1,0c-0.8-0.2-2.3-0.7-4.8-2.1c-3.2-1.7-5.8-4.4-6.3-6c0-0.1-0.1-0.2-0.1-0.2
	c0-0.1-0.1-0.3-0.1-0.4c-0.1-0.2-0.2-0.5-0.4-0.5c-0.3-0.1-0.5,0.1-0.6,0.2c-0.2,0.1-1.1,1-1.9,1.6c-0.3,0.3-0.6,0.5-0.6,0.6
	c-0.2,0.2-0.3,0.4-0.2,0.7c0.1,0.2,0.2,0.4,0.4,0.7c4,5.2,8.3,8.6,12.8,9.9c3.5,1,7.2,0.9,10.9-0.4c6.1-2.2,8.7-7.2,6.7-12.7
	C170.6,396.5,165,392.8,159,395z M159.1,367.7c-0.2,0.1-14.3,3.7-14.9,3.9c-0.2,0-0.4,0.2-0.5,0.3c-0.1,0.2-0.1,0.4,0,0.6
	c0,0.1,0.3,0.8,0.5,1.4c0.2,0.8,0.5,1.6,0.6,1.8l0.1,0.2c0.1,0.3,0.3,0.4,0.6,0.5l0,0c1.5,0.4,2.6,1.5,3.2,3.2
	c0.8,2.2-0.6,4.8-3,5.6c-2.5,0.9-5.7,0.6-7-2.9c-0.6-1.7-0.9-4,0.7-5.6c0,0,0.1-0.1,0.1-0.1c0,0,0.1-0.1,0.1-0.1
	c0.2-0.2,0.4-0.4,0.3-0.7c-0.1-0.2-0.3-0.3-0.4-0.3c-0.3-0.1-2.5-0.9-3.5-1.3c-0.3-0.1-0.5-0.2-0.5-0.2c-0.6-0.2-0.8,0.2-1,0.6
	c-0.5,1-2.1,3.9,0,9.6c0.9,2.6,2.9,4.6,5.5,5.6c2.4,1,5.3,1,7.8,0.1c5.3-1.9,7.4-7.3,6-11.2c-1.2-3.3-2.4-4.1-2.9-4.4
	c0,0-0.1,0-0.1-0.1h0c0.4-0.1,4-1,5.4-1.4c0.3-0.1,0.6-0.1,0.6-0.1c0.1,0,0.2,0.1,0.2,0.1l3,8.5c0.2,0.6,0.7,0.6,1.1,0.6
	c0.2,0,0.9,0,1.7,0c0.8,0,1.5,0,1.7,0c0.3,0,0.5-0.2,0.6-0.3c0.1-0.2,0.2-0.4,0.1-0.6l-4.7-13.1C160,367.9,159.5,367.6,159.1,367.7z
	 M146.7,342.4c-0.3,0.1-0.5,0.2-0.6,0.4c-0.1,0.2-0.1,0.5,0,0.8l3.9,10.8c0,0,0,0,0,0c-0.1,0-0.4-0.1-0.7-0.2
	c-1.5-0.5-5-1.8-10.5-2.9c-7.8-1.5-12.5-1-14.6-0.5c-0.2,0-0.4,0.1-0.6,0.4c-0.1,0.1-0.1,0.4,0,0.6l1.8,5c0.1,0.4,0.5,0.5,1,0.3
	c2.6-0.9,7.7-1.5,13-0.6c5.3,0.9,12,2.8,12.1,2.8l0.1,0l4.1-1.5c0.4-0.1,0.5-0.6,0.3-1l-5.2-14.6c-0.1-0.4-0.6-0.7-1.2-0.5
	C149.4,341.8,148.3,342,146.7,342.4L146.7,342.4z M142.4,324.8l-24.4,8.7c-0.5,0.2-0.7,0.6-0.5,1l1.3,3.6c0.2,0.5,0.6,0.7,1.2,0.5
	l25.9-9.2c0.7-0.2,0.6-0.6,0.6-0.8c0-0.1-0.1-0.1-0.1-0.2c-0.1-0.1-1.8-2.1-2.4-2.9l-0.4-0.4C143.2,324.8,142.9,324.7,142.4,324.8z
	 M134.9,298.2l-13,4.6c-0.3,0.1-0.4,0.3-0.3,0.6l2.1,6c1,2.7,4.5,4.6,9.2,3c4.4-1.5,5.5-5.6,4.4-8.8l-1.8-5.2
	C135.4,298.3,135.1,298.1,134.9,298.2z M125.9,279.5c-0.2,0-0.4,0-0.5,0.2c-0.1,0.1-0.1,0.2,0,0.3c0.1,0.1,0.5,1.3,0.8,2.3
	c0.3,0.8,0.6,1.5,0.6,1.6c0,0,0,0,0,0.1l-15.4,5.5c-0.2,0.1-0.5,0.2-0.3,0.6l1,2.9c0.1,0.2,0.1,0.3,0.3,0.3c0.2,0.1,0.3,0,0.4,0
	c0,0,0,0,0,0l15.4-5.5c0,0,0,0,0,0l1.6,4.4c0.1,0.2,0.2,0.3,0.3,0.4c0.2,0.1,0.4,0,0.5-0.1c0.1-0.1,0.9-0.6,1.7-1
	c0.2-0.1,0.3-0.2,0.4-0.2c0.2-0.1,0.4-0.4,0.3-0.8l-3.8-10.8c-0.2-0.5-0.6-0.5-0.8-0.5c-0.2,0-0.9,0.1-1.5,0.2L125.9,279.5
	C126,279.5,125.9,279.5,125.9,279.5z M117.3,262.7c-3.7,1.3-3.8,3.5-4,6.5v0c-0.2,3.1-0.3,4-2.2,4.6c-1.7,0.6-3.3-0.1-3.9-1.9
	c-0.8-2.1,0.4-3.6,0.7-4c0.1-0.1,0.1-0.1,0.1-0.2c0.1-0.2,0.1-0.4,0.1-0.5c0-0.1-0.1-0.2-0.1-0.2l0,0l0,0c0,0-2.2-1-2.4-1.1
	c-0.3-0.2-0.6,0-0.8,0.2c-0.6,0.6-2.4,2.4-0.7,7.1c1.2,3.3,4.7,6,8.9,4.5c3.9-1.4,4.1-4.3,4.3-6.4c0-0.1,0-0.3,0-0.4
	c0-0.4,0-0.8,0.1-1.1c0.1-1.7,0.1-2.9,1.4-3.4c1.3-0.4,2.7,0.4,3.2,2c0.6,1.6-0.4,2.5-0.8,2.9c0,0.1-0.1,0.1-0.1,0.1
	c-0.2,0.2-0.1,0.3-0.1,0.4c0.1,0.2,0.3,0.3,0.4,0.3c0,0,0.1,0,0.1,0c0.1,0,0.4,0.2,2.5,0.8l0.1,0c0.4,0.1,0.5,0,0.7-0.2
	c0,0,0,0,0-0.1c0.2-0.3,1.5-2.9,0.5-5.6C124.2,264,120.8,261.5,117.3,262.7z M96.5,249.6l3.4,9.6c0.1,0.1,0.1,0.2,0.2,0.2
	c0.1,0.1,0.3,0,0.5-0.1c0.1,0,1.1-0.6,1.8-1.1l0.1-0.1c0.2-0.1,0.3-0.4,0.2-0.6l-2.2-6.2c0,0,0,0,0,0l5.5-2c0,0,0,0,0,0l1.9,5.4
	c0.1,0.4,0.4,0.4,0.6,0.3l2.1-0.7c0.3-0.1,0.4-0.4,0.3-0.6l-2-5.5c0,0,0,0,0,0l4.3-1.5c0.1,0,0.3-0.1,0.3,0l2,5.5
	c0.1,0.3,0.4,0.6,0.8,0.5c0.2,0,1.1-0.1,2-0.2c0.2,0,0.3,0,0.3,0c0.2,0,0.4-0.1,0.4-0.2c0.1-0.1,0.1-0.2,0-0.3l-3.4-9.4
	c-0.1-0.3-0.4-0.4-0.7-0.3l-18.3,6.5C96.4,249.1,96.4,249.4,96.5,249.6z M75.2,40.4c0,0,0,0,0.1,0.1C75.3,40.5,75.3,40.4,75.2,40.4
	C75.2,40.4,75.2,40.4,75.2,40.4z M25.9,71.6c0,1,0.1,1.9,0.2,2.9c1.7-5.4,5.1-10,9.5-13.2c-2.3,2.5-3.7,5.9-3.7,9.6
	c0,8,6.4,14.4,14.4,14.4c8,0,14.4-6.5,14.4-14.4c0-7.5-5.7-13.6-12.9-14.3c0,0,0.1,0,0.1,0c0.9-0.1,1.7-0.1,2.6-0.1
	c4.9,0,9.4,1.3,13.3,3.7c-3.7-5.7-10.1-9.4-17.3-9.4C35.2,50.7,25.9,60.1,25.9,71.6z M205.2,459.3c-9.4,3.7-19.1,7.4-28.3,8.8
	c0.1,0.1,0.1,0.2,0.2,0.3c2.1,3.6,17.7-0.5,21.5-1.7c3.8-1.2,4.7-3.2,4.7-3.2C203.8,462.1,204.5,460.7,205.2,459.3z M129.2,159
	l5.5-12.6c0,0,0,0,0,0l31.9-72.8c-1.5-0.7-3-1.5-4.5-2.2L132,140.3c-1.5-3.4-3-6.7-4.5-10l-4,2.4c1.9,4.3,3.9,8.8,5.9,13.3l-3,6.8
	C127.4,154.9,128.3,156.9,129.2,159z M179.7,272.4l8.3-18.9v0l63.9-145.7c-1.6-0.4-3.3-0.8-4.9-1.3l-64.2,146.3
	c-1.3-2.8-2.6-5.6-4-8.7l-3.9,2.3c2.3,4.9,3.1,7.3,5.2,11.7l0.2,0.4l-3.4,7.9C177.9,268.6,178.8,270.6,179.7,272.4z M303.4,115.1
	L214.8,317c-1.5-2.4-2.9-4.8-4.2-7.2l-3.8,2.3c2.3,4,3.5,5.8,5.9,9.7l-3.4,7.7c0.9,1.4,1.9,2.9,2.9,4.3l0.5,0.2l5.2-11.9
	c0,0,0,0,0,0l90.8-206.9C307,115.2,305.2,115.2,303.4,115.1z M187.3,288.3c0.8,1.8,1.8,3.8,2.8,6l8.2-18.7l0,0l71.9-163.8
	c-1.7-0.3-3.4-0.6-5-0.9l-72,164.2c-1.2-2.4-2.5-5.3-4-8.6l-4.1,2.5c2.4,5.2,3.4,7.4,5.4,11.5l0.2,0.4v0l-1.2,2.7L187.3,288.3z
	 M149.2,204.8l7.2-16.4l43.4-99c-1.5-0.7-3-1.3-4.5-2l-43,98.1c-1.4-3-2.7-6.1-4.1-9.1l-3.9,2.4c1.8,4,3.1,7,4.7,10.8
	c0.2,0.5,0.5,1.1,0.7,1.7l-3.3,7.4C147.4,200.7,148.3,202.7,149.2,204.8z M139.2,181.9l7.4-16.8l0,0l36.6-83.4
	c-1.5-0.7-3-1.4-4.5-2.2l-36.6,83.3c-1.4-3.2-2.8-6.3-4.2-9.4l-3.9,2.4c2,4.5,3.6,8.2,5.6,12.8l-3.1,7.1
	C137.4,177.8,138.3,179.9,139.2,181.9z M159.3,227.5l5.9-13.5c0,0,0,0,0,0l51.6-117.6c-1.6-0.6-3.1-1.2-4.6-1.8L162.5,208
	c-1.3-3-2.7-6-4.1-9l-4,2.4c2.1,4.7,3.4,7.7,5.5,12.3l-3.4,7.7C157.5,223.5,158.4,225.5,159.3,227.5z M166.7,244
	c0.9,2.1,1.9,4.1,2.8,6.1l6-13.6c0,0,0,0,0,0l58.7-133.9c-1.6-0.5-3.2-1-4.7-1.6l-56.8,129.4c-1.3-2.9-2.7-5.8-4-8.9l-3.9,2.4
	c2.2,4.8,3.3,7.5,5.3,12.1l0.1,0.2v0l0,0l-2.6,5.9L166.7,244z"/>
</svg>
