<?xml version="1.0" encoding="utf-8"?>
<!-- Generator: Adobe Illustrator 16.0.1, SVG Export Plug-In . SVG Version: 6.00 Build 0)  -->
<!DOCTYPE svg PUBLIC "-//W3C//DTD SVG 1.1//EN" "http://www.w3.org/Graphics/SVG/1.1/DTD/svg11.dtd">
<svg version="1.1" id="Layer_1" xmlns="http://www.w3.org/2000/svg" xmlns:xlink="http://www.w3.org/1999/xlink" x="0px" y="0px"
	 width="144.3px" height="37px" viewBox="37.7 0 144.3 37" enable-background="new 37.7 0 144.3 37" xml:space="preserve">
<path fill="#FFFFFF" d="M48.5-36.6L57.1-13c0.7-0.4,3.6-3.3,4.5-4.6c-0.5-0.1-0.9-0.4-1.2-1c0,0-0.3-0.7-0.8-1.7
	c0.1-0.2,2.4-3.4,4.6-8.3c2.3-4.9,3.3-8.7,3.3-8.9c-0.1,0.2-2.4,3.4-4.6,8.3c-2.3,4.9-3.3,8.7-3.3,8.9c-0.4-0.8-0.8-1.8-1.4-3
	c0.1-0.2,2-2.8,3.8-6.8c1.9-4,2.6-7.2,2.7-7.3c-0.1,0.1-2,2.7-3.8,6.8c-1.9,4-2.6,7.1-2.7,7.3c-0.4-0.9-0.8-1.8-1.3-2.8
	c0.1-0.1,1.7-2.3,3.2-5.7c1.6-3.4,2.2-6,2.2-6.1c-0.1,0.1-1.7,2.3-3.2,5.7c-1.5,3.3-2.2,5.9-2.2,6.1c-0.4-0.8-0.8-1.7-1.2-2.5
	c0.1-0.1,1.4-1.9,2.7-4.7c1.3-2.8,1.8-5,1.8-5.1c1.7,0.6,3.1,0.9,4.6,1c3.5,0.2,7.4-1.3,9.5-3.2l-1.9-5c-3.4,2.7-8.8,3.7-15.2,1.3
	c-2.5-0.9-4.7-1.3-6.5-1.3c-4.8,0-7.3,2.7-7.3,5.6c0,2.3,1.6,3.9,3.7,3.9C47.6-36.3,48.1-36.4,48.5-36.6z M52.6-42.2
	c0.4,0.1,0.8,0.4,1.3,0.6c0,0-0.6,0.8-1.2,2.1c-0.6,1.2-0.8,2.2-0.8,2.2s0.6-0.8,1.2-2.1c0.6-1.2,0.8-2.2,0.8-2.2
	c0.4,0.2,0.9,0.5,1.4,0.8c0,0-0.8,1.1-1.5,2.6c-0.7,1.6-1,2.8-1,2.9c0,0,0.8-1.1,1.5-2.6c0.7-1.6,1-2.8,1-2.9c0.9,0.5,1.9,1,2.9,1.4
	c0.7,0.3,1.4,0.6,2.1,0.8c-0.1,0.1-1.4,1.9-2.7,4.7c-1.3,2.8-1.8,5-1.8,5.1c-0.4-0.8-0.7-1.6-1.1-2.4c0.1-0.1,1.2-1.6,2.2-3.9
	c1.1-2.3,1.5-4.2,1.5-4.3c-0.1,0.1-1.2,1.6-2.2,3.9c-1.1,2.3-1.5,4.1-1.5,4.2c-0.3-0.7-0.7-1.5-1-2.2c0.1-0.1,1-1.3,1.8-3.2
	c0.9-1.9,1.2-3.4,1.3-3.5c0,0.1-1,1.3-1.8,3.2c-0.9,1.9-1.2,3.4-1.3,3.5c-1.5-3.4-2.8-6.1-3-6.6c-0.6-1.3-1-2.2-1.8-2.6
	C49.8-42.7,51.3-42.7,52.6-42.2z M45.6-39.7c0-0.7,0.6-1.4,1.4-1.4c0.7,0,1.4,0.6,1.4,1.4c0,0.7-0.6,1.4-1.4,1.4
	C46.3-38.3,45.6-39,45.6-39.7z M72.4-38.3c2.1,11.4-1.8,21.8-11.1,29.6h-6.4l-7.6-25.6c-0.1-0.3-0.2-0.7-0.2-1
	c0-0.3,0.2-0.5,0.5-0.5c0.2,0,0.4,0.1,0.5,0.3l8.2,24.8c8.7-7,13.4-15.7,12.6-26.4C70-37.3,71.5-37.8,72.4-38.3z"/>
<path fill="#FFFFFF" d="M225.299-31.6c0.4-0.1,0.601-0.3,0.601-0.7c0-0.3-0.101-0.5-0.3-0.5c-0.2-0.1-0.4-0.1-0.6-0.1h-1v2.3h0.5v-1
	h0.199l0.6,1h0.601L225.299-31.6z M224.5-32.5h0.5c0.299,0,0.398,0.1,0.398,0.2c0,0.2-0.102,0.2-0.398,0.2H224.9h-0.101H224.5V-32.5
	z M224.9-33.9c-1.2,0-2.2,1-2.2,2.2c0,1.2,1,2.2,2.2,2.2s2.2-1,2.2-2.2C227.1-32.9,226.1-33.9,224.9-33.9z M224.9-30.1
	c-0.899,0-1.601-0.7-1.601-1.6c0-0.9,0.701-1.6,1.601-1.6s1.601,0.7,1.601,1.6C226.6-30.8,225.799-30.1,224.9-30.1z"/>
<g>
	<path fill="#FFFFFF" d="M176.9,21.8l-2.5-1.6c-2.2-1.5-3.101-2.7-3.101-4.2c0-1.7,1.101-3,3.4-3c2.5,0,4.399,1.5,4.801,3.3h0.6
		v-4.8c-1.6-0.2-2.7-0.8-5.5-0.8c-4.6,0-7.4,2.6-7.4,6.7c0,3.5,2.1,5.4,4.6,7.1l2.9,2c2.1,1.4,2.9,2.8,2.9,4.4
		c0,2.398-1.801,3.5-4,3.5c-2.7,0-5.2-1.602-5.6-4H167.4v5.5c1.101,0,3.101,1.1,6.5,1.1c4.8,0,8.101-2.9,8.101-7.5
		C182,26.2,180.799,24.4,176.9,21.8z M160.6,21.8l-2.5-1.6c-2.2-1.5-3.1-2.7-3.1-4.2c0-1.7,1.1-3,3.5-3c2.5,0,4.398,1.5,4.799,3.3
		h0.601v-4.8c-1.601-0.2-2.7-0.8-5.5-0.8c-4.601,0-7.399,2.6-7.399,6.7c0,3.5,2.101,5.4,4.601,7.1l2.899,2
		c2.101,1.4,2.899,2.8,2.899,4.4c0,2.398-1.8,3.5-4.101,3.5c-2.699,0-5.199-1.602-5.6-4H151v5.5c1.1,0,3.1,1.1,6.5,1.1
		c4.799,0,8.1-2.9,8.1-7.5C165.6,26.2,164.5,24.4,160.6,21.8z M145.7,34.1H140.5v-9.3h4.6c0.699,0,1.8,0.101,2,0.3h0.5v-3.3H147
		c-0.201,0.4-1.5,0.601-2.102,0.601H140.5v-8.699h5.299c0.801,0,1.9,0.4,2.101,1h0.5v-3.5H134.5v0.5c0.6,0.1,1.199,1,1.199,2.6v20
		c0,0.602,0,1.602-0.199,1.801v0.5H148.9V32.9h-0.5C148,33.5,147.1,34.1,145.7,34.1z M127.299,11.6c0.601,0.1,1,1,1,2.6v13.1
		L119.1,11h-6.301v0.5c0.801,0.1,1.601,1.2,2,2l13.101,23H131V11.1H127.2v0.5H127.299z M117.299,33.9V21.6l-2.799-5.1v17.6
		c0,0.301,0,1.801-0.201,2v0.5h3.4V36C117.5,35.9,117.299,34.9,117.299,33.9z M106.5,11.6c0.6,0.1,1,1,1,2.6v13.1L98.299,11H91.9
		v0.5c0.8,0.1,1.601,1.2,2,2L107,36.5h3.1V11.1h-3.801v0.5H106.5z M96.5,33.9V21.6L93.7,16.5v17.6c0,0.301,0,1.801-0.199,2v0.5H96.9
		V36C96.7,35.9,96.5,34.9,96.5,33.9z M89.3,33.7V11.1h-6v0.5c0.6,0.1,1.2,1,1.2,2.6V34.1c0,0.7-0.1,1.801-0.3,1.9v0.5h5.6V36
		C89.6,36,89.3,35.2,89.3,33.7z M76.1,11.6c0.6,0.1,1.2,1,1.2,2.6v14.2c0,1.898-0.2,2.8-0.6,3.5c-0.8,1.5-2.3,2-4,2
		c-1.6,0-3-0.5-3.8-2c-0.4-0.7-0.6-1.602-0.6-3.301V11.1h-6.1v0.5c0.6,0.1,1.1,1,1.1,2.6v14.3c0,5.1,2.5,8.4,8.6,8.4
		c4.2,0,6.8-1.602,7.7-4.801c0.3-1,0.5-2.101,0.5-4.101V11H76v0.6H76.1z M52.6,21.4c1.5,0.3,1.8,2,1.8,3.3v9.2
		C53.8,34.1,53,34.3,51.7,34.3c-4.3,0-8.4-3.8-8.4-13.399c0-9,3.7-12.699,8.2-12.699c2.8,0,5.3,1.4,6,4.6h0.6V6.5h-0.4
		c0,0-0.1,0.1-0.3,0.1c-1.1,0-2.9-0.9-6.7-0.9c-7.7,0-13,6.2-13,15.5C37.7,32,43.8,37.1,51,37.1c4.6,0,8.1-1.1,8.4-1.3V24.1
		c0-0.8,0.1-2.6,0.3-2.699v-0.5h-7.2v0.5H52.6L52.6,21.4z"/>
</g>
<image overflow="visible" enable-background="new    " width="1000" height="1429" xlink:href="../Documents/Desktop 25:07:16/newGuinnessHarp.png"  transform="matrix(0.031 0 0 0.031 2 -3.7285)">
</image>
</svg>
